<mxfile host="app.diagrams.net" agent="Mozilla/5.0 (X11; Linux x86_64) AppleWebKit/537.36 (KHTML, like Gecko) Chrome/135.0.0.0 Safari/537.36" version="26.2.14">
  <diagram name="PÃ gina-1" id="rQVeMGEyYpGkiY1lkj5T">
    <mxGraphModel dx="872" dy="441" grid="1" gridSize="10" guides="1" tooltips="1" connect="1" arrows="1" fold="1" page="1" pageScale="1" pageWidth="827" pageHeight="1169" math="0" shadow="0">
      <root>
        <mxCell id="0" />
        <mxCell id="1" parent="0" />
        <mxCell id="vRwuPEVHFwkV1wbohDBM-43" value="Vertical Container" style="swimlane;whiteSpace=wrap;html=1;" vertex="1" parent="1">
          <mxGeometry x="160" y="40" width="600" height="400" as="geometry" />
        </mxCell>
        <mxCell id="vRwuPEVHFwkV1wbohDBM-44" value="" style="rounded=1;whiteSpace=wrap;html=1;" vertex="1" parent="vRwuPEVHFwkV1wbohDBM-43">
          <mxGeometry x="120" y="145" width="360" height="60" as="geometry" />
        </mxCell>
        <mxCell id="vRwuPEVHFwkV1wbohDBM-45" value="Admin" style="rounded=0;whiteSpace=wrap;html=1;" vertex="1" parent="vRwuPEVHFwkV1wbohDBM-43">
          <mxGeometry x="480" y="30" width="50" height="30" as="geometry" />
        </mxCell>
        <mxCell id="vRwuPEVHFwkV1wbohDBM-46" value="User" style="rounded=0;whiteSpace=wrap;html=1;" vertex="1" parent="vRwuPEVHFwkV1wbohDBM-43">
          <mxGeometry x="540" y="30" width="50" height="30" as="geometry" />
        </mxCell>
        <mxCell id="vRwuPEVHFwkV1wbohDBM-48" value="&lt;b&gt;&lt;font style=&quot;font-size: 20px;&quot;&gt;GESTOR D&#39;INCIDENCIES&lt;/font&gt;&lt;/b&gt;" style="text;html=1;align=center;verticalAlign=middle;whiteSpace=wrap;rounded=0;" vertex="1" parent="vRwuPEVHFwkV1wbohDBM-43">
          <mxGeometry x="215" y="160" width="190" height="30" as="geometry" />
        </mxCell>
        <mxCell id="vRwuPEVHFwkV1wbohDBM-49" value="Afegir incidencia" style="rounded=0;whiteSpace=wrap;html=1;" vertex="1" parent="vRwuPEVHFwkV1wbohDBM-43">
          <mxGeometry x="140" y="225" width="120" height="30" as="geometry" />
        </mxCell>
        <mxCell id="vRwuPEVHFwkV1wbohDBM-50" value="Consultar estat" style="rounded=0;whiteSpace=wrap;html=1;" vertex="1" parent="vRwuPEVHFwkV1wbohDBM-43">
          <mxGeometry x="330" y="225" width="120" height="30" as="geometry" />
        </mxCell>
        <mxCell id="vRwuPEVHFwkV1wbohDBM-53" value="Institut Pedralbes" style="text;html=1;align=center;verticalAlign=middle;whiteSpace=wrap;rounded=0;" vertex="1" parent="vRwuPEVHFwkV1wbohDBM-43">
          <mxGeometry x="10" y="30" width="100" height="30" as="geometry" />
        </mxCell>
        <mxCell id="vRwuPEVHFwkV1wbohDBM-55" value="Text" style="text;html=1;align=center;verticalAlign=middle;whiteSpace=wrap;rounded=0;" vertex="1" parent="vRwuPEVHFwkV1wbohDBM-43">
          <mxGeometry x="10" y="350" width="60" height="30" as="geometry" />
        </mxCell>
      </root>
    </mxGraphModel>
  </diagram>
</mxfile>
